<?xml version="1.0" standalone="no"?>
<!DOCTYPE svg PUBLIC "-//W3C//DTD SVG 20010904//EN"
 "http://www.w3.org/TR/2001/REC-SVG-20010904/DTD/svg10.dtd">
<svg version="1.0" xmlns="http://www.w3.org/2000/svg"
 width="300.000000pt" height="158.000000pt" viewBox="0 0 300.000000 158.000000"
 preserveAspectRatio="xMidYMid meet">
<metadata>
Created by potrace 1.10, written by Peter Selinger 2001-2011
</metadata>
<g transform="translate(0.000000,158.000000) scale(0.050000,-0.050000)"
fill="#000000" stroke="none">
<path d="M2710 3118 c-77 -7 -176 -26 -220 -43 -44 -17 -111 -43 -150 -57 -84
-32 -280 -156 -280 -177 0 -8 -29 -31 -65 -51 -36 -19 -105 -89 -155 -154 -49
-65 -110 -144 -135 -175 -25 -31 -45 -74 -45 -94 0 -21 -12 -56 -27 -78 -15
-21 -38 -75 -52 -119 -22 -73 -59 -162 -104 -255 -10 -19 -10 -35 -1 -35 10 0
10 -51 2 -113 -22 -162 -27 -356 -10 -384 8 -13 18 -74 22 -134 3 -61 16 -122
28 -137 12 -14 17 -30 12 -35 -5 -6 17 -66 50 -134 33 -68 60 -146 60 -173 0
-28 9 -50 20 -50 11 0 20 -14 20 -31 0 -16 13 -35 30 -42 16 -6 26 -18 20 -26
-15 -25 401 -418 458 -432 29 -7 52 -21 52 -31 0 -10 11 -18 25 -19 14 0 61
-18 105 -39 44 -21 95 -39 114 -39 18 -1 38 -8 44 -18 6 -9 38 -12 71 -7 34 5
61 1 61 -9 0 -21 486 -18 520 3 13 8 32 6 42 -4 11 -11 78 -12 161 -3 79 8
151 11 159 6 8 -5 21 -1 28 11 7 11 34 20 61 20 27 0 49 8 49 18 0 11 27 25
60 32 33 7 67 25 75 39 8 14 47 43 85 64 147 79 259 170 333 272 42 58 90 116
107 128 16 13 24 30 16 38 -8 8 8 43 35 78 27 36 49 74 49 86 0 11 13 26 30
32 16 6 24 24 18 40 -6 16 -1 35 11 42 12 7 16 35 9 62 -7 27 -4 49 6 49 152
0 161 927 11 1167 -26 42 -43 82 -37 88 6 6 -7 33 -28 60 -22 27 -35 57 -30
65 6 9 -17 45 -50 80 -33 35 -60 71 -60 80 0 26 -341 340 -369 340 -14 0 -59
23 -99 50 -41 28 -85 50 -100 50 -14 0 -53 13 -86 30 -136 68 -585 100 -956
68z m471 -51 c55 -22 78 -41 70 -61 -8 -21 0 -25 30 -16 44 14 120 -35 232
-149 56 -57 128 -71 96 -20 -22 36 53 18 131 -31 57 -36 80 -64 80 -98 0 -26
15 -59 33 -75 30 -24 33 -22 22 18 -6 25 -4 45 4 45 9 0 31 -20 49 -45 19 -25
28 -34 22 -20 -7 14 -3 25 9 25 11 0 21 -9 21 -20 0 -11 17 -20 37 -20 42 0
92 -51 111 -113 8 -24 27 -48 43 -55 16 -6 29 -22 29 -36 -1 -18 -6 -17 -20 4
-17 26 -19 25 -20 -5 0 -21 15 -35 39 -35 46 0 71 -32 40 -51 -28 -17 38 -68
90 -68 35 -1 36 -3 5 -26 -39 -29 -36 -67 11 -134 22 -31 27 -56 15 -71 -12
-14 -1 -41 32 -76 27 -30 44 -54 37 -54 -6 0 0 -12 15 -27 23 -23 31 -235 18
-448 -2 -33 -110 -145 -139 -145 -13 0 -23 -8 -23 -18 0 -10 19 -13 43 -7 30
8 39 4 29 -12 -9 -14 4 -40 30 -61 l46 -37 -46 -14 c-61 -20 -130 39 -82 69
24 16 20 19 -17 20 -39 0 -46 -8 -36 -44 6 -24 1 -57 -12 -72 -19 -22 -15 -34
15 -56 35 -26 20 -39 -35 -30 -8 1 -15 -8 -15 -20 0 -13 21 -19 50 -13 40 8
46 4 28 -17 -12 -14 -16 -35 -10 -45 6 -10 -7 -23 -31 -30 -34 -8 -39 -21 -29
-62 13 -50 -13 -71 -38 -31 -7 12 -22 15 -33 8 -14 -8 -13 -20 1 -34 28 -28
29 -81 2 -64 -12 7 -16 21 -9 31 6 10 -3 13 -20 7 -35 -14 -40 -40 -11 -58 27
-17 25 -50 -3 -50 -12 0 -61 -40 -109 -88 -65 -68 -96 -87 -132 -79 -46 10
-46 10 -6 -24 40 -34 40 -34 -5 -23 -29 6 -45 1 -45 -15 0 -16 -18 -22 -50
-16 -29 6 -50 0 -50 -13 0 -12 14 -22 30 -22 17 0 30 -8 30 -19 0 -29 -36 -44
-50 -21 -19 31 -56 24 -43 -9 13 -35 -18 -61 -37 -32 -8 13 -22 12 -39 -4 -15
-14 -23 -31 -19 -38 13 -21 -55 -39 -97 -25 -27 8 -35 5 -26 -10 8 -13 -3 -22
-27 -22 -49 0 -139 -37 -190 -79 -22 -17 -32 -20 -24 -6 8 14 5 25 -7 25 -11
0 -21 -9 -21 -21 0 -33 -321 -20 -334 14 -12 32 -98 36 -117 6 -8 -14 -23 -8
-39 15 -16 22 -19 40 -7 48 11 6 -7 13 -40 14 -67 1 -243 76 -243 103 0 9 -45
23 -100 31 -69 9 -100 23 -100 43 0 21 12 26 43 16 28 -9 38 -6 28 9 -7 12
-28 22 -46 22 -18 0 -54 20 -80 44 -39 37 -53 41 -85 21 -21 -14 -43 -16 -49
-6 -6 10 0 22 14 28 17 7 9 25 -25 57 -77 71 -140 168 -140 215 0 24 -9 38
-20 31 -11 -7 -18 7 -15 34 3 30 -4 44 -22 40 -19 -4 -24 6 -15 29 8 19 2 41
-12 50 -21 14 -21 20 1 34 20 13 21 22 4 32 -12 8 -17 32 -10 53 8 25 2 38
-17 38 -16 0 -34 18 -40 41 -9 33 -3 38 28 28 26 -8 38 -2 38 20 0 37 33 42
45 6 7 -20 15 -20 40 1 18 15 52 21 81 13 29 -7 75 1 111 19 84 44 110 41 251
-27 318 -154 851 -208 1172 -119 83 23 124 25 168 9 45 -16 61 -15 67 4 5 14
32 25 62 25 75 0 185 71 170 109 -11 30 33 43 113 32 21 -3 16 9 -14 37 -67
63 -131 50 -296 -60 -104 -69 -152 -80 -526 -118 -330 -34 -643 17 -893 146
-128 66 -350 88 -367 37 -4 -13 -23 -23 -42 -23 -19 0 -44 -10 -57 -23 -34
-34 -119 -38 -144 -8 -16 20 -14 29 10 39 21 8 28 25 19 52 -9 28 -4 40 19 40
17 0 31 9 31 19 0 11 16 15 35 9 19 -6 13 3 -15 20 -44 26 -53 26 -72 1 -25
-32 -57 -40 -38 -9 7 11 -1 14 -19 8 -22 -9 -31 0 -31 31 0 24 -9 38 -20 31
-11 -7 -20 -34 -20 -61 0 -27 -8 -49 -18 -49 -10 0 -14 18 -8 40 7 24 1 40
-14 40 -17 0 -21 19 -13 62 7 34 3 79 -8 100 -11 21 -13 38 -5 38 9 0 18 33
21 74 3 41 16 80 28 88 13 8 18 33 12 56 -6 23 -5 42 3 42 8 0 11 27 6 60 -5
33 0 60 10 60 35 0 45 -25 25 -61 -11 -21 -12 -41 -1 -48 16 -10 102 163 102
208 0 11 -18 21 -40 21 -53 0 -50 35 10 124 28 41 50 82 50 93 0 10 41 60 92
110 51 50 87 99 80 110 -7 11 4 15 25 10 23 -6 42 2 50 21 6 18 25 32 42 32
19 0 25 11 17 33 -10 27 -4 31 33 22 25 -7 41 -8 36 -4 -17 18 139 169 174
169 29 0 34 -13 27 -70 -7 -61 -3 -69 30 -58 35 11 36 9 6 -37 -44 -67 -8
-185 47 -155 20 10 41 13 48 6 12 -12 22 42 15 81 -2 9 13 13 32 9 20 -4 35
-23 33 -42 -2 -24 13 -34 48 -34 44 0 47 4 22 34 -24 29 -23 32 7 21 19 -7 40
-5 46 6 7 10 -29 30 -79 43 -51 14 -91 36 -91 51 0 15 -9 22 -20 15 -12 -7
-16 -21 -10 -31 12 -19 -31 -99 -54 -99 -28 0 -2 201 36 271 37 69 50 73 128
41 20 -8 42 8 64 48 19 33 46 60 60 60 21 -1 21 -4 -1 -18 -20 -12 -16 -19 17
-28 25 -6 38 -21 31 -33 -17 -27 1 -27 50 0 47 24 52 79 8 79 -17 0 -25 10
-18 21 13 22 109 16 172 -10 18 -8 40 -3 48 11 11 17 6 21 -18 12 -18 -7 -33
-4 -33 7 0 29 90 23 181 -14z m439 -158 c0 -43 -46 -92 -62 -67 -29 46 -20 78
22 78 22 0 40 -5 40 -11z"/>
<path d="M3097 3024 c14 -10 25 -26 24 -36 -1 -10 17 -21 40 -25 32 -5 41 3
36 30 -5 24 -28 39 -67 43 -41 4 -51 0 -33 -12z"/>
<path d="M2593 2886 c-7 -7 -13 -25 -13 -39 0 -30 52 -37 69 -9 13 22 -38 67
-56 48z"/>
<path d="M2847 2676 c6 -24 1 -58 -12 -75 -16 -20 -9 -18 18 5 42 36 44 114 2
114 -11 0 -14 -20 -8 -44z"/>
<path d="M2245 2593 c19 -15 35 -38 35 -50 0 -29 33 -30 51 -1 18 29 -20 64
-76 71 -41 6 -42 4 -10 -20z"/>
<path d="M2009 2490 c-52 -49 -107 -90 -122 -90 -15 0 -27 -12 -27 -27 0 -15
-17 -42 -38 -61 -40 -36 -69 -112 -43 -112 16 0 161 162 161 181 0 7 40 41 89
76 95 69 155 46 109 -41 -13 -24 -12 -36 1 -36 12 0 21 -9 21 -20 0 -11 -13
-20 -30 -20 -16 0 -30 -9 -30 -20 0 -26 -54 -26 -70 0 -7 11 8 28 32 37 31 11
37 21 20 32 -28 17 -103 -42 -96 -76 2 -12 -16 -25 -40 -29 -28 -4 -40 -17
-33 -35 7 -18 -1 -29 -21 -29 -37 0 -43 -51 -9 -72 13 -8 39 5 60 31 22 27 49
41 67 34 39 -15 -25 -91 -65 -77 -31 10 -33 -20 -3 -50 15 -15 15 -25 0 -35
-12 -7 -22 -2 -22 12 0 64 -46 -27 -52 -104 -4 -46 -18 -97 -30 -112 -18 -21
-16 -36 8 -63 18 -19 41 -57 52 -84 l19 -50 2 54 c0 29 -8 59 -19 66 -13 8 -9
28 10 56 41 58 39 96 -5 80 -28 -9 -30 -7 -11 14 17 18 18 37 4 63 -13 25 -13
37 1 37 12 0 21 -13 21 -29 0 -15 13 -41 28 -56 15 -15 31 -42 35 -59 5 -20
19 -26 44 -17 35 12 35 16 5 46 -20 20 -24 37 -12 45 11 7 20 5 21 -4 0 -9 14
25 31 74 16 50 40 109 51 133 12 24 18 55 13 69 -5 14 17 49 48 79 46 44 54
64 44 116 -10 50 -6 63 20 63 17 0 32 9 32 21 0 13 -26 16 -70 8 -62 -12 -70
-9 -70 29 0 61 -25 52 -131 -48z"/>
<path d="M3414 2527 c-22 -21 -16 -51 6 -37 11 7 20 3 20 -9 0 -27 -96 -66
-122 -50 -10 6 -18 -3 -18 -21 0 -25 11 -29 45 -18 101 34 241 5 309 -63 14
-14 43 -21 66 -15 24 7 40 1 40 -14 0 -14 16 -37 35 -51 68 -50 8 -50 -125 0
-138 52 -281 53 -315 3 -10 -15 -14 -14 -15 3 0 14 -9 25 -20 25 -29 0 -180
-141 -180 -168 0 -12 -19 -34 -42 -49 -44 -27 -138 31 -138 86 0 59 -302 156
-427 138 -94 -14 -227 -83 -273 -142 -22 -28 -46 -46 -53 -39 -7 7 -38 -42
-70 -109 l-58 -122 65 -127 c36 -71 76 -128 90 -128 13 0 31 -13 40 -28 85
-149 646 -169 646 -24 0 13 33 36 74 51 84 30 146 -17 146 -111 0 -29 12 -48
30 -48 17 0 30 14 30 31 0 28 4 28 33 -1 28 -28 29 -36 5 -52 -24 -15 -24 -17
0 -18 15 0 39 15 52 33 14 20 38 28 57 21 19 -7 36 -11 40 -8 4 2 21 -8 39
-23 18 -15 43 -20 58 -11 33 21 196 26 196 7 0 -25 -59 -39 -162 -39 -114 0
-124 -20 -32 -64 91 -44 249 -16 387 67 100 61 145 110 77 84 -43 -16 -37 20
10 63 159 144 182 452 45 611 -59 68 -145 186 -145 198 0 12 -154 108 -180
112 -5 1 -59 9 -120 18 -60 9 -115 24 -121 34 -7 10 -18 11 -25 4z m186 -287
c0 -11 -11 -20 -25 -21 -14 0 16 -14 65 -31 50 -16 108 -38 130 -47 22 -10 56
-23 76 -29 20 -6 45 -39 57 -72 11 -33 28 -60 37 -60 36 0 43 -160 11 -257
-48 -145 -135 -210 -241 -182 -11 3 -42 -4 -70 -15 -62 -26 -258 -21 -276 6
-8 11 -43 32 -78 46 -148 60 -230 284 -149 407 68 104 235 215 322 215 24 0
57 14 74 30 34 34 67 39 67 10z m-834 -58 c191 -82 292 -355 171 -458 -32 -26
-57 -65 -57 -86 0 -21 -7 -39 -15 -41 -8 -1 -37 -5 -65 -8 -27 -3 -89 -16
-137 -28 -47 -12 -110 -18 -140 -13 -29 5 -65 9 -79 10 -15 1 -20 12 -13 23 7
12 1 20 -14 17 -101 -17 -242 148 -241 282 1 75 68 220 101 220 7 0 37 22 65
48 88 81 277 97 424 34z"/>
<path d="M3471 1952 c-84 -70 -85 -146 -4 -202 137 -97 287 43 201 188 -49 84
-109 88 -197 14z"/>
<path d="M2527 1986 c-118 -59 -99 -234 28 -258 103 -20 177 42 170 144 -8
122 -88 168 -198 114z"/>
<path d="M2318 2505 c-2 -8 -2 -21 -1 -29 1 -7 -16 -19 -37 -26 -58 -18 -49
-50 13 -45 29 2 62 20 75 40 12 19 35 35 52 35 27 1 27 3 0 20 -36 23 -99 26
-102 5z"/>
<path d="M2625 2498 c-25 -9 -45 -21 -45 -27 0 -5 14 -4 31 2 18 7 48 -6 71
-30 22 -24 49 -43 61 -43 40 0 139 -84 235 -200 l96 -115 -4 72 c-7 109 -6
108 -66 176 -96 108 -296 195 -379 165z"/>
<path d="M1830 2110 c-10 -22 -29 -49 -44 -60 -43 -33 -51 -114 -10 -106 19 4
34 22 34 42 0 19 12 43 27 52 15 9 23 38 18 64 -8 46 -9 46 -25 8z"/>
<path d="M1742 1867 c-27 -61 -16 -83 26 -49 28 24 37 102 11 102 -7 0 -23
-24 -37 -53z"/>
<path d="M1662 1784 c-13 -25 -21 -61 -16 -80 6 -26 14 -19 32 24 29 73 17
118 -16 56z"/>
<path d="M2025 1788 c7 -7 -12 -34 -41 -62 -30 -27 -42 -43 -28 -36 15 8 39
-2 55 -23 26 -35 28 -34 28 16 1 30 6 68 13 85 7 19 2 32 -13 32 -14 0 -20 -5
-14 -12z"/>
<path d="M1731 1708 c-33 -68 -29 -115 7 -77 17 19 47 149 34 149 -4 0 -23
-32 -41 -72z"/>
<path d="M1820 1692 c0 -15 12 -37 28 -50 22 -18 27 -13 27 28 0 29 -11 50
-27 50 -16 0 -28 -12 -28 -28z"/>
<path d="M1777 1617 c-4 -27 -20 -46 -37 -45 -18 1 -30 -16 -30 -44 0 -41 3
-42 33 -15 26 23 35 24 42 3 5 -14 16 4 24 41 9 40 7 75 -5 87 -14 14 -23 5
-27 -27z"/>
<path d="M2260 1421 c28 -22 62 -36 76 -31 15 6 46 -1 70 -15 57 -32 258 -38
248 -7 -4 12 -47 25 -95 28 -49 4 -97 14 -109 23 -11 8 -69 22 -130 29 l-110
13 50 -40z"/>
<path d="M2915 1285 c-50 -11 -43 -45 10 -47 49 -1 96 -9 169 -27 54 -14 63
18 11 39 -61 26 -154 42 -190 35z"/>
<path d="M4146 1160 c-36 -19 -60 -40 -53 -46 14 -14 119 36 137 66 17 27 -8
22 -84 -20z"/>
<path d="M2291 1021 c-7 -11 1 -21 18 -21 17 0 31 -9 31 -20 0 -11 34 -21 75
-21 51 -1 64 -6 39 -16 -42 -16 58 -123 115 -123 16 0 34 -9 41 -20 7 -11 27
-20 45 -20 19 0 55 -25 81 -55 29 -34 43 -42 36 -20 -7 24 0 35 22 35 18 0 27
-6 20 -13 -22 -21 81 -65 125 -53 23 6 54 0 70 -13 16 -14 41 -17 54 -9 14 9
109 14 211 13 122 -2 186 4 186 18 0 12 18 17 40 11 22 -6 40 -2 40 8 0 10 12
18 26 18 26 0 114 104 114 134 0 18 -103 19 -132 2 -10 -6 -47 -18 -83 -25
-36 -8 -65 -22 -65 -33 0 -10 -13 -18 -30 -18 -16 0 -30 14 -30 31 0 38 -79
69 -120 47 -118 -66 -573 -28 -528 44 4 8 -30 21 -76 29 -46 7 -97 27 -113 43
-17 18 -50 25 -81 19 -31 -6 -66 3 -85 20 -22 20 -37 23 -46 8z"/>
<path d="M3799 969 c-19 -23 -17 -31 10 -41 18 -7 29 -26 23 -41 -6 -15 2 -27
18 -27 22 0 25 11 11 49 -13 33 -12 51 4 56 14 5 10 13 -10 20 -17 7 -43 0
-56 -16z"/>
<path d="M3720 891 c0 -16 9 -52 20 -80 15 -41 13 -55 -10 -64 -35 -13 -40
-67 -7 -67 13 0 18 5 12 12 -6 6 4 27 24 47 23 23 32 55 26 97 -9 61 -65 108
-65 55z"/>
<path d="M3548 428 c10 -25 4 -29 -23 -19 -49 19 -49 19 -110 2 -75 -21 -72
-71 4 -71 32 0 63 8 69 17 6 10 53 15 103 12 76 -5 90 -1 81 24 -7 17 -12 34
-12 38 0 4 -13 3 -28 -3 -15 -6 -34 -1 -41 11 -21 33 -57 24 -43 -11z"/>
<path d="M2695 406 c-19 -5 -35 -21 -35 -36 0 -14 16 -23 35 -20 19 4 41 8 48
8 7 1 18 16 24 32 12 30 -5 34 -72 16z"/>
<path d="M3242 385 c-14 -15 -42 -21 -64 -14 -26 8 -38 2 -38 -18 0 -21 28
-31 100 -36 95 -7 140 23 75 50 -19 7 -18 15 5 31 24 17 22 20 -12 17 -22 -2
-52 -15 -66 -30z"/>
<path d="M2800 370 c-21 -25 -17 -31 23 -33 97 -7 148 -13 197 -27 28 -7 41
-6 29 3 -12 9 -27 31 -34 49 -16 43 -180 50 -215 8z"/>
<path d="M495 3015 c-17 -25 -26 -72 -21 -106 9 -56 4 -61 -77 -83 -91 -25
-155 13 -157 93 0 20 -11 14 -33 -17 -19 -28 -25 -51 -13 -59 25 -17 66 -136
66 -191 0 -23 18 -54 40 -67 22 -14 40 -47 40 -73 0 -80 53 -155 136 -192 43
-20 103 -68 134 -108 70 -93 121 -90 207 10 71 82 73 138 5 138 -22 0 -49 16
-60 35 -18 31 -21 31 -21 2 -1 -45 -53 -84 -85 -64 -14 9 -57 26 -96 38 -51
15 -82 43 -116 103 l-45 83 45 44 46 44 -49 -12 c-53 -12 -121 32 -121 79 0
30 175 113 202 97 10 -6 18 -41 18 -78 0 -41 12 -71 30 -78 17 -7 30 -37 30
-72 0 -55 63 -141 104 -141 24 0 19 91 -7 150 -29 63 -9 87 82 94 67 6 68 5
89 -104 17 -82 32 -112 60 -117 30 -6 35 1 22 30 -8 20 -19 60 -24 87 -5 28
-14 64 -21 80 -6 17 -10 38 -7 47 2 10 -5 28 -15 40 -9 13 -24 50 -31 83 -37
160 -55 207 -81 217 -20 8 -27 -4 -25 -40 6 -85 -156 -126 -194 -50 -14 29
-22 64 -18 78 15 40 -7 29 -39 -20z m304 -144 c47 -56 17 -118 -65 -138 -64
-15 -81 -12 -105 20 -45 60 -35 105 26 118 30 7 64 16 75 19 37 12 45 10 69
-19z"/>
<path d="M5215 3032 c-15 -15 -39 -80 -54 -145 -14 -64 -34 -128 -45 -141 -11
-13 -14 -33 -7 -44 6 -10 3 -25 -9 -32 -11 -7 -20 -35 -20 -62 0 -28 -10 -69
-22 -91 -13 -26 -15 -48 -3 -60 30 -30 67 31 82 137 14 95 15 96 83 90 90 -7
116 -33 84 -84 -27 -44 -33 -160 -8 -160 36 0 104 85 104 129 0 27 12 60 26
75 14 14 27 53 30 85 6 88 27 96 130 51 104 -47 109 -57 59 -119 -30 -37 -44
-41 -90 -23 -35 13 -55 14 -55 2 0 -11 8 -20 19 -20 63 0 80 -61 39 -146 -69
-139 -295 -196 -298 -74 -1 24 -6 23 -22 -5 -11 -19 -38 -35 -60 -35 -68 0
-66 -56 5 -138 85 -99 131 -102 205 -10 31 40 93 88 136 108 83 37 136 112
136 192 0 26 18 59 40 73 22 13 40 44 40 67 0 55 41 174 66 191 12 8 6 31 -13
59 -18 26 -33 35 -33 21 0 -128 -227 -139 -232 -12 -5 111 -8 125 -33 134 -15
6 -26 -9 -28 -38 -5 -87 -38 -107 -133 -79 -73 22 -84 32 -80 78 4 62 0 65
-39 26z m110 -153 c81 -23 95 -61 46 -126 -41 -54 -178 -22 -188 44 -12 88 30
113 142 82z"/>
<path d="M35 2668 c-28 -27 -14 -118 25 -168 22 -27 39 -62 40 -76 0 -15 23
-67 50 -116 28 -50 46 -98 40 -108 -18 -30 327 -376 398 -399 37 -13 76 -44
89 -72 26 -58 50 -60 200 -16 177 51 243 113 202 189 -17 32 -8 54 50 126 39
47 71 100 71 118 0 17 9 37 19 44 11 6 19 40 18 76 -4 93 24 234 45 234 10 0
18 23 18 50 0 56 -15 60 -89 27 -42 -19 -57 -17 -87 10 -48 43 -64 42 -64 -4
0 -21 -18 -60 -39 -88 -22 -27 -34 -55 -28 -62 7 -6 -2 -34 -20 -62 -39 -59
-29 -190 17 -223 43 -32 37 -101 -13 -151 l-43 -43 -74 86 c-93 109 -116 78
-45 -62 50 -98 61 -108 125 -110 105 -4 110 -6 84 -32 -26 -26 -234 -95 -289
-96 -41 0 -43 8 -11 58 18 31 16 44 -11 71 -22 22 -29 51 -21 82 14 55 -39 72
-59 19 -13 -33 -93 -42 -93 -10 0 11 -13 20 -30 20 -16 0 -30 8 -30 19 0 10
-18 24 -39 31 -21 6 -35 23 -29 37 9 24 -47 81 -124 125 -74 43 -81 118 -16
175 l58 51 -70 -11 c-103 -16 -163 50 -102 111 55 55 54 58 -22 66 -48 4 -67
18 -75 53 -6 25 -18 39 -26 31z m1066 -340 c55 -88 7 -179 -52 -99 -39 52 -37
171 3 171 2 0 25 -32 49 -72z"/>
<path d="M5936 2635 c-5 -36 -22 -47 -83 -55 l-77 -10 54 -46 c74 -65 21 -134
-89 -116 l-68 11 64 -59 c70 -65 53 -141 -39 -171 -21 -6 -38 -20 -38 -30 0
-11 -14 -19 -30 -19 -18 0 -36 -25 -43 -58 -8 -40 -30 -67 -69 -83 -32 -13
-58 -32 -58 -41 0 -26 -95 -22 -104 4 -4 12 -20 -4 -37 -35 -16 -31 -38 -63
-49 -71 -13 -10 -11 -29 5 -55 33 -53 32 -61 -10 -61 -55 1 -263 70 -289 96
-26 26 -21 28 84 32 64 2 75 12 126 112 68 134 38 160 -57 48 l-66 -78 -38 41
c-60 63 -63 95 -13 155 52 61 55 187 8 244 -14 17 -20 36 -14 43 7 7 -5 35
-27 62 -21 28 -39 66 -39 84 0 56 -23 62 -60 16 -31 -38 -42 -41 -89 -19 -87
39 -142 -2 -83 -62 34 -33 70 -197 58 -261 -6 -26 0 -54 12 -62 12 -7 22 -28
22 -45 0 -18 32 -71 71 -118 58 -72 67 -94 50 -126 -41 -76 25 -138 202 -189
150 -44 174 -42 200 16 13 28 52 59 89 72 71 23 416 369 398 399 -6 10 12 58
40 108 27 49 50 101 50 116 1 14 18 49 40 76 41 52 53 149 21 169 -10 6 -21
-9 -25 -34z m-956 -312 c0 -82 -47 -139 -87 -106 -24 20 -26 38 -11 79 44 114
98 129 98 27z"/>
</g>
</svg>
